<?xml version="1.0" standalone="no"?>
<!DOCTYPE svg PUBLIC "-//W3C//DTD SVG 20010904//EN"
 "http://www.w3.org/TR/2001/REC-SVG-20010904/DTD/svg10.dtd">
<svg version="1.0" xmlns="http://www.w3.org/2000/svg"
 width="1122.000000pt" height="1280.000000pt" viewBox="0 0 1122.000000 1280.000000"
 preserveAspectRatio="xMidYMid meet">
<metadata>
Created by potrace 1.15, written by Peter Selinger 2001-2017
</metadata>
<g transform="translate(0.000000,1280.000000) scale(0.100000,-0.100000)"
fill="#000000" stroke="none">
<path d="M2357 12786 c-70 -19 -143 -73 -188 -140 -21 -32 -39 -64 -39 -72 0
-7 -20 -22 -44 -33 -89 -39 -392 -253 -504 -356 -31 -27 -76 -64 -101 -80 -92
-60 -134 -178 -147 -406 -11 -188 3 -239 147 -561 l89 -196 -2 -104 c-2 -165
46 -290 152 -399 72 -73 121 -97 227 -111 72 -9 91 -15 111 -37 37 -40 52 -87
52 -163 l0 -69 -142 -148 c-79 -81 -200 -200 -270 -264 -193 -178 -302 -316
-333 -421 -21 -70 -19 -159 10 -353 83 -564 109 -761 150 -1137 25 -231 45
-441 45 -466 0 -35 -12 -73 -48 -151 -98 -210 -259 -664 -343 -970 -105 -379
-106 -385 -114 -487 -11 -143 35 -356 98 -449 34 -51 112 -105 182 -125 52
-15 159 -15 212 0 86 25 142 102 143 195 0 43 17 81 149 332 82 155 261 500
397 766 216 423 837 1605 849 1617 2 3 58 -17 124 -44 l120 -49 -21 -35 c-138
-229 -640 -1206 -825 -1605 -103 -221 -302 -722 -315 -791 -9 -50 -8 -73 6
-138 27 -121 89 -230 248 -436 415 -536 780 -1075 922 -1361 123 -246 200
-467 257 -738 17 -84 21 -124 16 -200 -12 -200 -80 -347 -283 -612 -94 -122
-118 -174 -118 -259 -1 -36 3 -79 7 -97 l8 -31 -98 -53 c-275 -148 -549 -316
-995 -611 -407 -268 -554 -340 -808 -394 -114 -24 -361 -25 -480 -1 -98 19
-227 60 -284 89 -22 11 -90 69 -151 128 -121 119 -161 140 -261 140 -62 0
-110 -17 -139 -50 -45 -50 -9 -237 74 -385 206 -370 742 -552 1231 -418 125
34 225 81 417 196 87 52 212 124 278 159 451 245 1500 802 1855 985 381 198
2690 1357 2690 1351 0 -2 -7 -56 -15 -121 -17 -139 -31 -172 -117 -292 -178
-246 -243 -455 -187 -597 l21 -53 -44 -38 c-23 -20 -113 -86 -198 -145 -85
-59 -196 -139 -246 -179 -238 -185 -635 -476 -789 -580 -261 -174 -400 -216
-652 -194 -221 20 -375 87 -528 232 -110 105 -127 116 -225 149 -82 27 -176
29 -253 4 -79 -25 -92 -42 -90 -118 3 -133 123 -361 254 -481 188 -174 435
-272 738 -294 249 -18 483 32 686 145 72 40 19 1 2443 1798 1223 906 2334
1729 2468 1828 l244 181 -42 46 c-24 25 -81 88 -127 139 -46 50 -87 92 -92 92
-4 0 -479 -347 -1054 -771 -865 -636 -1050 -769 -1060 -757 -7 7 -68 92 -135
188 -144 205 -174 243 -295 370 -155 163 -202 249 -265 488 -72 272 -173 507
-304 706 -166 252 -294 364 -572 504 -166 84 -210 124 -264 237 -96 199 -108
368 -52 710 36 219 126 909 143 1098 14 153 7 374 -16 477 -65 295 -218 585
-409 774 -44 44 -73 77 -64 74 16 -7 251 -31 437 -46 l94 -7 112 -445 c61
-245 134 -533 162 -640 118 -455 145 -579 153 -710 10 -145 37 -232 116 -376
52 -96 155 -213 211 -239 103 -49 241 28 338 189 9 14 227 -96 1655 -840 905
-471 1646 -857 1648 -859 1 -1 -9 -38 -24 -81 -23 -70 -26 -90 -22 -184 3 -82
9 -114 25 -146 31 -59 86 -104 126 -104 52 0 149 37 218 84 57 38 140 124 151
157 3 10 36 9 168 -4 90 -9 166 -15 168 -12 3 2 -38 61 -91 130 l-96 126 20
45 c53 118 65 305 25 389 -41 89 -102 110 -213 77 -87 -27 -152 -68 -233 -148
l-65 -63 -1702 887 -1703 887 0 46 c0 74 -26 139 -96 244 -119 176 -108 132
-189 825 -20 168 -42 343 -50 390 -21 129 -25 170 -35 360 -6 134 -13 189 -29
234 -46 130 -148 283 -270 404 -38 37 -215 191 -394 341 -256 215 -404 330
-704 544 -406 291 -491 347 -648 425 -241 121 -587 210 -999 257 -76 9 -177
28 -224 41 -180 52 -351 153 -468 276 -129 136 -183 252 -215 462 -55 369
-120 589 -242 819 -45 85 -62 106 -123 156 -67 56 -71 62 -82 116 -15 74 -15
75 4 75 9 0 44 28 79 63 51 51 67 75 80 119 25 89 -1 148 -74 168 -44 12 -54
12 -114 -4z"/>
</g>
</svg>
